<?xml version="1.0" encoding="UTF-8"?>
<!DOCTYPE svg PUBLIC "-//W3C//DTD SVG 1.1//EN" "http://www.w3.org/Graphics/SVG/1.1/DTD/svg11.dtd">
<!-- Creator: CorelDRAW -->
<svg xmlns="http://www.w3.org/2000/svg" xml:space="preserve" width="1920px" height="1080px" version="1.1" style="shape-rendering:geometricPrecision; text-rendering:geometricPrecision; image-rendering:optimizeQuality; fill-rule:evenodd; clip-rule:evenodd"
viewBox="0 0 1920 1080"
 xmlns:xlink="http://www.w3.org/1999/xlink"
 xmlns:xodm="http://www.corel.com/coreldraw/odm/2003">
 <defs>
  <style type="text/css">
   <![CDATA[
    .fil2 {fill:none}
    .fil0 {fill:#6300CB}
    .fil1 {fill:url(#id1)}
   ]]>
  </style>
   <clipPath id="id0">
    <path d="M388.1 192.55l1094.54 0c42.7,0 77.63,34.93 77.63,77.63l0 512.33c0,42.69 -34.93,77.63 -77.63,77.63l-1094.54 0c-42.7,0 -77.63,-34.94 -77.63,-77.63l0 -512.33c0,-42.7 34.93,-77.63 77.63,-77.63z"/>
   </clipPath>
  <linearGradient id="id1" gradientUnits="userSpaceOnUse" x1="730.93" y1="-870.96" x2="3271.4" y2="-187.58">
   <stop offset="0" style="stop-opacity:1; stop-color:#6300CB"/>
   <stop offset="0.568627" style="stop-opacity:1; stop-color:#D900D9"/>
   <stop offset="1" style="stop-opacity:1; stop-color:#E203A0"/>
  </linearGradient>
 </defs>
 <g id="Layer_x0020_1">
  <metadata id="CorelCorpID_0Corel-Layer"/>
  <path class="fil0" d="M388.1 192.55l1094.54 0c42.7,0 77.63,34.93 77.63,77.63l0 512.33c0,42.69 -34.93,77.63 -77.63,77.63l-1094.54 0c-42.7,0 -77.63,-34.94 -77.63,-77.63l0 -512.33c0,-42.7 34.93,-77.63 77.63,-77.63z"/>
  <g style="clip-path:url(#id0)">
   <g id="_105554255982272">
    <path id="1" class="fil1" d="M1319.8 -1822.25l1859.29 328.21c233,41.13 373.16,262.44 311.45,491.83l-377.94 1404.99c-61.71,229.39 -302.82,383.39 -535.82,342.26l-1753.54 -309.54c-233,-41.13 -373.15,-262.44 -311.45,-491.83l405.97 -1509.16c46.27,-172.02 227.21,-287.62 402.04,-256.76z"/>
   </g>
  </g>
  <path class="fil2" d="M388.1 192.55l1094.54 0c42.7,0 77.63,34.93 77.63,77.63l0 512.33c0,42.69 -34.93,77.63 -77.63,77.63l-1094.54 0c-42.7,0 -77.63,-34.94 -77.63,-77.63l0 -512.33c0,-42.7 34.93,-77.63 77.63,-77.63z"/>
 </g>
</svg>
