<svg xmlns="http://www.w3.org/2000/svg" xmlns:xlink="http://www.w3.org/1999/xlink" xmlns:xodm="http://www.corel.com/coreldraw/odm/2003" width="1920" height="1080" version="1.1" viewBox="0 0 1920 1080" xml:space="preserve" style="shape-rendering:geometricPrecision;text-rendering:geometricPrecision;image-rendering:optimizeQuality;fill-rule:evenodd;clip-rule:evenodd"><defs><style type="text/css">.fil2{fill:none}.fil0{fill:#6300cb}.fil1{fill:url(#id1)}</style><clipPath id="id0"><path d="M388.1 192.55l1094.54 0c42.7,0 77.63,34.93 77.63,77.63l0 512.33c0,42.69 -34.93,77.63 -77.63,77.63l-1094.54 0c-42.7,0 -77.63,-34.94 -77.63,-77.63l0 -512.33c0,-42.7 34.93,-77.63 77.63,-77.63z"/></clipPath><linearGradient id="id1" x1="730.93" x2="3271.4" y1="-870.96" y2="-187.58" gradientUnits="userSpaceOnUse"><stop offset="0" style="stop-opacity:1;stop-color:#6300cb"/><stop offset=".569" style="stop-opacity:1;stop-color:#d900d9"/><stop offset="1" style="stop-opacity:1;stop-color:#e203a0"/></linearGradient></defs><g id="Layer_x0020_1"><metadata id="CorelCorpID_0Corel-Layer"/><path d="M388.1 192.55l1094.54 0c42.7,0 77.63,34.93 77.63,77.63l0 512.33c0,42.69 -34.93,77.63 -77.63,77.63l-1094.54 0c-42.7,0 -77.63,-34.94 -77.63,-77.63l0 -512.33c0,-42.7 34.93,-77.63 77.63,-77.63z" class="fil0"/><g style="clip-path:url(#id0)"><g id="_105554255982272"><path id="1" d="M1319.8 -1822.25l1859.29 328.21c233,41.13 373.16,262.44 311.45,491.83l-377.94 1404.99c-61.71,229.39 -302.82,383.39 -535.82,342.26l-1753.54 -309.54c-233,-41.13 -373.15,-262.44 -311.45,-491.83l405.97 -1509.16c46.27,-172.02 227.21,-287.62 402.04,-256.76z" class="fil1"/></g></g><path d="M388.1 192.55l1094.54 0c42.7,0 77.63,34.93 77.63,77.63l0 512.33c0,42.69 -34.93,77.63 -77.63,77.63l-1094.54 0c-42.7,0 -77.63,-34.94 -77.63,-77.63l0 -512.33c0,-42.7 34.93,-77.63 77.63,-77.63z" class="fil2"/></g></svg>