<svg height="448pt" viewBox="0 0 448 448" width="448pt" xmlns="http://www.w3.org/2000/svg"><path d="m184 168h88c4.417969 0 8 3.582031 8 8v88h32v-128h-128zm0 0"/><path d="m136 184h128v128h-128zm0 0"/><path d="m224 0c-123.710938 0-224 100.289062-224 224s100.289062 224 224 224 224-100.289062 224-224c-.140625-123.652344-100.347656-223.859375-224-224zm104 272c0 4.417969-3.582031 8-8 8h-40v40c0 4.417969-3.582031 8-8 8h-144c-4.417969 0-8-3.582031-8-8v-144c0-4.417969 3.582031-8 8-8h40v-40c0-4.417969 3.582031-8 8-8h144c4.417969 0 8 3.582031 8 8zm0 0"/></svg>