<svg xmlns="http://www.w3.org/2000/svg" xmlns:xlink="http://www.w3.org/1999/xlink" id="Layer_1" x="0" y="0" version="1.1" viewBox="0 0 512 512" xml:space="preserve" style="enable-background:new 0 0 512 512"><circle style="fill:#25b6d2" cx="256" cy="256" r="256"/><rect width="226.648" height="27.336" x="142.68" y="390.112"/><polygon style="fill:#ebf0f2" points="175.136 121.888 175.136 186.808 256 255.144 256 121.888"/><polygon style="fill:#cfdce5" points="336.864 121.888 336.864 186.808 256 255.144 256 121.888"/><polygon style="fill:#ebf0f2" points="175.136 388.4 175.136 323.48 256 255.144 256 388.4"/><polygon style="fill:#cfdce5" points="336.864 388.4 336.864 323.48 256 255.144 256 388.4"/><g><polygon style="fill:#e04f5f" points="256 332.168 191.272 390.112 320.728 390.112"/><polygon style="fill:#e04f5f" points="256 230.616 298.472 192.6 213.528 192.6"/></g><rect width="226.648" height="27.336" x="142.68" y="94.56"/><g><rect style="fill:#606060" width="52.008" height="27.336" x="142.68" y="94.56"/><rect style="fill:#606060" width="52.008" height="27.336" x="142.68" y="390.112"/></g></svg>